<?xml version="1.0" encoding="UTF-8"?>
<svg xmlns="http://www.w3.org/2000/svg" width="12016" height="2576" viewBox="0 0 12016 2576" role="img" aria-label="autoCURB">
  <g transform="translate(240,1948) scale(1,-1)">
    <g fill="#6D28D9">
      <path transform="translate(0,0)" d="M440 -30Q324 -30 243.5 14.5Q163 59 121.5 133.5Q80 208 80 298Q80 373 103.0 435.0Q126 497 177.5 544.5Q229 592 316 624Q376 646 459.0 663.0Q542 680 647.0 695.5Q752 711 878 730L780 676Q780 772 734.0 817.0Q688 862 580 862Q520 862 455.0 833.0Q390 804 364 730L118 808Q159 942 272.0 1026.0Q385 1110 580 1110Q723 1110 834.0 1066.0Q945 1022 1002 914Q1034 854 1040.0 794.0Q1046 734 1046 660V0H808V222L842 176Q763 67 671.5 18.5Q580 -30 440 -30ZM498 184Q573 184 624.5 210.5Q676 237 706.5 271.0Q737 305 748 328Q769 372 772.5 430.5Q776 489 776 528L856 508Q735 488 660.0 474.5Q585 461 539.0 450.0Q493 439 458 426Q418 410 393.5 391.5Q369 373 357.5 351.0Q346 329 346 302Q346 265 364.5 238.5Q383 212 417.0 198.0Q451 184 498 184Z"/>
      <path transform="translate(1141,0)" d="M542 -32Q415 -32 335.0 11.0Q255 54 210.5 120.0Q166 186 147.0 257.5Q128 329 124.0 388.0Q120 447 120 474V1080H396V570Q396 533 400.0 475.5Q404 418 425.0 360.0Q446 302 493.5 263.0Q541 224 628 224Q663 224 703.0 235.0Q743 246 778.0 277.5Q813 309 835.5 370.5Q858 432 858 532L1014 458Q1014 330 962.0 218.0Q910 106 805.5 37.0Q701 -32 542 -32ZM892 0V358H858V1080H1132V0Z"/>
      <path transform="translate(2388,0)" d="M788 0Q676 -21 568.5 -18.5Q461 -16 376.5 19.5Q292 55 248 134Q208 208 206.0 284.5Q204 361 204 458V1380H476V474Q476 411 477.5 360.5Q479 310 498 280Q534 223 613.0 218.0Q692 213 788 226ZM20 870V1080H788V870Z"/>
      <path transform="translate(3251,0)" d="M626 -30Q463 -30 340.0 43.0Q217 116 148.5 244.5Q80 373 80 540Q80 709 150.0 837.5Q220 966 343.0 1038.0Q466 1110 626 1110Q789 1110 912.5 1037.0Q1036 964 1105.0 835.5Q1174 707 1174 540Q1174 372 1104.5 243.5Q1035 115 911.5 42.5Q788 -30 626 -30ZM626 224Q757 224 821.5 312.5Q886 401 886 540Q886 684 820.5 770.0Q755 856 626 856Q537 856 480.0 816.0Q423 776 395.5 705.0Q368 634 368 540Q368 395 433.5 309.5Q499 224 626 224Z"/>
    </g>
    <g fill="#0D1B2A" transform="translate(4255,0)">
      <path transform="translate(0,0)" d="M642 -388Q526 -252 443.5 -79.0Q361 94 318.5 283.5Q276 473 280 660Q276 847 318.5 1037.0Q361 1227 443.5 1399.5Q526 1572 642 1708L844 1560Q722 1413 653.0 1266.5Q584 1120 555.5 969.5Q527 819 526 660Q527 501 555.5 350.5Q584 200 653.0 53.5Q722 -93 844 -240Z"/>
      <path transform="translate(899,0)" d="M758 -30Q542 -30 385.5 64.0Q229 158 144.5 327.0Q60 496 60 720Q60 944 144.5 1113.0Q229 1282 385.5 1376.0Q542 1470 758 1470Q1006 1470 1174.5 1347.0Q1343 1224 1412 1014L1138 938Q1098 1069 1003.0 1141.5Q908 1214 758 1214Q621 1214 529.5 1153.0Q438 1092 392.0 981.0Q346 870 346 720Q346 570 392.0 459.0Q438 348 529.5 287.0Q621 226 758 226Q908 226 1003.0 299.0Q1098 372 1138 502L1412 426Q1343 216 1174.5 93.0Q1006 -30 758 -30Z"/>
      <path transform="translate(2366,0)" d="M726 -30Q552 -30 420.0 40.5Q288 111 214.0 239.0Q140 367 140 540V1438L416 1440V542Q416 471 440.0 413.0Q464 355 506.5 313.0Q549 271 605.5 248.5Q662 226 726 226Q792 226 848.5 249.0Q905 272 947.0 314.0Q989 356 1012.5 414.0Q1036 472 1036 542V1440H1312V540Q1312 367 1238.0 239.0Q1164 111 1032.0 40.5Q900 -30 726 -30Z"/>
      <path transform="translate(3793,0)" d="M140 0V1440H748Q769 1440 804.5 1438.5Q840 1437 868 1432Q997 1412 1079.5 1347.0Q1162 1282 1201.0 1183.5Q1240 1085 1240 964Q1240 783 1150.0 654.5Q1060 526 868 496L748 488H412V0ZM952 0 668 586 948 640 1260 0ZM412 742H736Q757 742 782.0 744.0Q807 746 828 752Q883 767 913.0 802.5Q943 838 954.5 881.5Q966 925 966 964Q966 1003 954.5 1046.5Q943 1090 913.0 1125.5Q883 1161 828 1176Q807 1182 782.0 1184.0Q757 1186 736 1186H412Z"/>
      <path transform="translate(5108,0)" d="M140 0V1440H716Q870 1440 965.0 1378.5Q1060 1317 1104.0 1224.0Q1148 1131 1148 1036Q1148 915 1093.5 835.0Q1039 755 944 728V778Q1079 750 1146.5 653.0Q1214 556 1214 436Q1214 307 1166.5 209.0Q1119 111 1022.0 55.5Q925 0 778 0ZM416 256H750Q805 256 848.0 279.5Q891 303 915.5 345.5Q940 388 940 446Q940 497 919.0 537.0Q898 577 855.5 600.5Q813 624 750 624H416ZM416 878H712Q758 878 794.0 894.0Q830 910 851.0 943.5Q872 977 872 1030Q872 1096 831.0 1141.0Q790 1186 712 1186H416Z"/>
      <path transform="translate(6357,0)" d="M282 -388 80 -240Q202 -93 271.0 53.5Q340 200 368.5 350.5Q397 501 398 660Q397 819 368.5 969.5Q340 1120 271.0 1266.5Q202 1413 80 1560L282 1708Q398 1572 480.5 1399.5Q563 1227 605.5 1037.0Q648 847 644 660Q648 473 605.5 283.5Q563 94 480.5 -79.0Q398 -252 282 -388Z"/>
    </g>
  </g>
</svg>
