<svg xmlns="http://www.w3.org/2000/svg" width="180" height="132" viewBox="0 0 180 132" fill="none">
    <rect x="1" y="1" width="178" height="130" rx="22" fill="#FFFFFF" stroke="#E6E8EC"/>
    <circle cx="90" cy="61" r="36" fill="#ECFDF5"/>
    <g transform="translate(66 37) scale(2)" stroke="#16A34A" stroke-width="1.7" stroke-linecap="round" stroke-linejoin="round"><path d="M5 16 6.5 10a2 2 0 0 1 1.9-1.5h7.2a2 2 0 0 1 1.9 1.5L19 16"/><rect x="4" y="14" width="16" height="5" rx="2"/><circle cx="7" cy="18" r="1"/><circle cx="17" cy="18" r="1"/><line x1="8" y1="12" x2="16" y2="12"/><line x1="15.6" y1="6" x2="17.2" y2="7.6"/><line x1="17.2" y1="7.6" x2="21.2" y2="3.5999999999999996"/></g>
    <path d="M48 110h84" stroke="#E6E8EC" stroke-width="4" stroke-linecap="round"/>
    <path d="M65 119h50" stroke="#F1F5F9" stroke-width="4" stroke-linecap="round"/>
    </svg>